<svg width="354" height="140" viewBox="0 0 354 140" fill="none" xmlns="http://www.w3.org/2000/svg">
<g clip-path="url(#clip0_11_9)">
<path d="M159.046 98.5066C170.662 87.6533 182.594 79.6707 191.013 77.1198C200.033 74.3869 199.048 70.3739 189.958 72.8211C186.134 73.8507 186.46 71.688 191.424 63.0891C203.27 42.5727 221.209 36.0035 252.528 40.7141C279.028 44.7 300.462 44.3521 311.923 39.7501L321.263 36L314.375 47.9299C305.858 62.6813 288.426 82.3311 277.646 89.3302C266.211 96.7551 236.623 105.564 224.907 105.032C214.41 104.555 196.444 95.8264 188.926 87.5508C185.18 83.4267 183.073 83.7084 176.739 89.1804C172.527 92.8192 167.491 98.5484 165.549 101.912C163.345 105.731 160.491 107.146 157.951 105.679C154.934 103.937 155.217 102.084 159.046 98.5066Z" fill="#1A6B22"/>
<path d="M57.6 72.24L51.904 72.176C49.8133 72.176 48.2133 72.2187 47.104 72.304C46.4213 78.3627 46.08 83.8027 46.08 88.624C55.936 88.624 63.0613 87.984 67.456 86.704C67.1573 89.1787 66.304 91.0987 64.896 92.464C63.5307 93.8293 61.8027 94.512 59.712 94.512C59.1147 94.512 57.2587 94.3627 54.144 94.064C51.072 93.808 48.0853 93.68 45.184 93.68C42.2827 93.68 39.3813 93.9573 36.48 94.512C36.8213 93.104 37.632 91.888 38.912 90.864C38.8693 90.608 38.848 89.7973 38.848 88.432C38.848 87.0667 39.4667 82.0107 40.704 73.264C39.5093 73.5627 38.4853 73.8827 37.632 74.224C37.5467 73.456 37.504 72.8373 37.504 72.368C37.504 69.7653 38.8267 68.144 41.472 67.504C42.4533 60.336 42.9867 54.6187 43.072 50.352C41.9627 50.2667 41.1733 49.9893 40.704 49.52C40.2773 49.0507 40.064 48.2187 40.064 47.024C40.064 45.7867 40.2347 44.6987 40.576 43.76C44.9707 44.3573 49.7493 44.656 54.912 44.656C60.0747 44.656 65.0027 44.1867 69.696 43.248C69.44 44.8693 68.8427 46.192 67.904 47.216C67.008 48.1973 65.5573 48.9013 63.552 49.328C61.5467 49.7547 59.8827 50.0107 58.56 50.096C56.1707 50.3093 53.2267 50.416 49.728 50.416C49.6853 51.952 49.024 57.5627 47.744 67.248C50.3893 67.3333 52.3093 67.376 53.504 67.376C57.2587 67.376 59.9253 66.7573 61.504 65.52C61.5893 66.2027 61.632 66.7573 61.632 67.184C61.632 70.5547 60.288 72.24 57.6 72.24ZM93.047 94.96C88.311 94.96 84.3217 93.04 81.079 89.2C77.8363 85.36 76.215 79.7707 76.215 72.432C76.215 67.0133 77.0897 62.0853 78.839 57.648C80.5883 53.168 83.319 49.52 87.031 46.704C90.7857 43.8453 95.0097 42.416 99.703 42.416C104.396 42.416 107.81 43.568 109.943 45.872C112.076 48.1333 113.143 50.736 113.143 53.68C113.143 56.624 112.396 58.992 110.903 60.784C109.41 62.5333 107.468 63.408 105.079 63.408C104.311 63.408 103.372 63.2373 102.263 62.896C103.244 61.872 104.098 60.4427 104.823 58.608C105.591 56.7307 105.975 54.8533 105.975 52.976C105.975 51.0987 105.463 49.4987 104.439 48.176C103.458 46.8107 101.879 46.128 99.703 46.128C96.4177 46.128 93.4737 47.4933 90.871 50.224C88.311 52.912 86.3697 56.24 85.047 60.208C83.767 64.1333 83.127 68.1867 83.127 72.368C83.127 78.256 84.2577 82.672 86.519 85.616C88.7803 88.5173 91.703 89.968 95.287 89.968C97.6763 89.968 100.13 89.2427 102.647 87.792C105.164 86.3413 107.234 84.2507 108.855 81.52C109.495 81.52 110.092 81.712 110.647 82.096C111.202 82.48 111.479 82.864 111.479 83.248C109.09 87.7707 106.082 90.9067 102.455 92.656C99.2977 94.192 96.1617 94.96 93.047 94.96ZM156.249 65.2C156.249 58.928 155.289 54.3627 153.369 51.504C151.449 48.6453 148.846 47.216 145.561 47.216C142.275 47.216 139.246 48.5173 136.473 51.12C133.699 53.7227 131.587 56.9867 130.137 60.912C128.686 64.7947 127.961 68.784 127.961 72.88C127.961 78.384 128.963 82.9067 130.969 86.448C133.017 89.9893 136.067 91.76 140.121 91.76C143.406 91.76 146.307 90.416 148.825 87.728C151.342 85.04 153.198 81.712 154.393 77.744C155.63 73.776 156.249 69.5947 156.249 65.2ZM155.353 88.624C153.518 90.7147 151.214 92.4 148.441 93.68C145.71 94.96 142.702 95.6 139.417 95.6C136.174 95.6 133.294 94.832 130.777 93.296C128.302 91.76 126.339 89.712 124.889 87.152C121.945 81.9467 120.473 75.9947 120.473 69.296C120.473 62.5973 122.115 56.6453 125.401 51.44C128.686 46.192 132.953 42.736 138.201 41.072C138.926 41.2427 139.331 41.584 139.417 42.096C136.43 43.9307 133.977 46.0853 132.057 48.56C130.179 51.0347 128.878 54.384 128.153 58.608C129.945 53.616 132.739 49.6907 136.537 46.832C140.334 43.9733 144.302 42.544 148.441 42.544C152.622 42.544 156.163 44.336 159.065 47.92C162.009 51.4613 163.481 56.6027 163.481 63.344C163.481 69.9147 162.307 75.8667 159.961 81.2C158.723 84.016 157.187 86.4907 155.353 88.624Z" fill="#3C2C03"/>
</g>
<defs>
<clipPath id="clip0_11_9">
<rect width="354" height="140" fill="white"/>
</clipPath>
</defs>
</svg>
